# xmcd
#
# Track frame offsets: 
#        150
#        21748
#        42025
#        62041
#        83869
#        100722
#        120539
#        138267
#        158820
#        182925
#        206662
#        224235
#
# Disc length: 3210 seconds
#
# Revision: 1
# Processed by: cddbd v1.5.1PL0 Copyright (c) Steve Scherf et al.
# Submitted via: ExactAudioCopy v0.95a5
#
DISCID=b00c880c
DTITLE=林志炫 - 蒙娜丽莎的眼泪
DYEAR=1998
DGENRE=Pop
TTITLE0=Coming Home
TTITLE1=蒙娜丽莎的眼泪
TTITLE2=蜘蛛
TTITLE3=我的眼留下你的泪
TTITLE4=这就是爱
TTITLE5=拆穿
TTITLE6=给你一些不给一些
TTITLE7=Miss Mama
TTITLE8=互动
TTITLE9=多一点少一点
TTITLE10=冬
TTITLE11=总有
EXTD=
EXTT0=
EXTT1=
EXTT2=
EXTT3=
EXTT4=
EXTT5=
EXTT6=
EXTT7=
EXTT8=
EXTT9=
EXTT10=
EXTT11=
PLAYORDER=
